<svg xmlns="http://www.w3.org/2000/svg" version="1.1" xmlns:xlink="http://www.w3.org/1999/xlink" xmlns:svgjs="http://svgjs.dev/svgjs" width="2000" height="429" viewBox="0 0 2000 429"><g transform="matrix(1,0,0,1,-1.2121212121212466,-1.7593481352028277)"><svg viewBox="0 0 396 85" data-background-color="#f9f9f9" preserveAspectRatio="xMidYMid meet" height="429" width="2000" xmlns="http://www.w3.org/2000/svg" xmlns:xlink="http://www.w3.org/1999/xlink"><g id="tight-bounds" transform="matrix(1,0,0,1,0.2400000000000091,0.34858879135720144)"><svg viewBox="0 0 395.52 84.3028224172856" height="84.3028224172856" width="395.52"><g><svg viewBox="0 0 395.52 84.3028224172856" height="84.3028224172856" width="395.52"><g><svg viewBox="0 0 395.52 84.3028224172856" height="84.3028224172856" width="395.52"><g id="textblocktransform"><svg viewBox="0 0 395.52 84.3028224172856" height="84.3028224172856" width="395.52" id="textblock"><g><svg viewBox="0 0 395.52 84.3028224172856" height="84.3028224172856" width="395.52"><g transform="matrix(1,0,0,1,0,0)"><svg width="395.52" viewBox="1.25 -36.25 222.13 47.35" height="84.3028224172856" data-palette-color="#030303"><path d="M8.35-7.8L6.85 0 1.25 0 8.15-35.25 13.8-36.25 12.25-27.85Q11.95-26.25 11.23-23.95 10.5-21.65 9.95-19.6L9.95-19.6Q11.9-22.75 14.05-23.83 16.2-24.9 18.3-24.9L18.3-24.9Q21.2-24.9 23.1-23.5 25-22.1 25-19.15L25-19.15Q25-16.9 23.88-15.28 22.75-13.65 21.4-12.65L21.4-12.65Q19.8-11.45 17.85-10.7L17.85-10.7Q18.5-8.65 19.28-6.93 20.05-5.2 21.03-3.6 22-2 23.15-0.48 24.3 1.05 25.7 2.65L25.7 2.65 21.25 5.15Q17.35 1.55 15.08-2.88 12.8-7.3 11.6-12L11.6-12 11.65-12.5Q12.05-12.6 13.28-13 14.5-13.4 15.8-14.1 17.1-14.8 18.13-15.83 19.15-16.85 19.15-18.2L19.15-18.2Q19.15-19.5 18.6-20.18 18.05-20.85 16.65-20.85L16.65-20.85Q14.9-20.85 13.53-19.48 12.15-18.1 11.1-16.07 10.05-14.05 9.38-11.8 8.7-9.55 8.35-7.8L8.35-7.8ZM35.25-3.7Q36.5-3.7 37.75-5.1 39-6.5 40.05-8.53 41.1-10.55 41.87-12.88 42.65-15.2 43.05-17.1L43.05-17.1 43.75-20.55Q43.15-20.85 42.37-20.95 41.6-21.05 40.9-21.05L40.9-21.05Q38.65-21.05 37.07-19.78 35.5-18.5 34.52-16.53 33.55-14.55 33.12-12.18 32.7-9.8 32.7-7.65L32.7-7.65Q32.7-5.45 33.32-4.58 33.95-3.7 35.25-3.7L35.25-3.7ZM33.4 0.4Q31.6 0.4 30.35-0.3 29.1-1 28.3-2.18 27.5-3.35 27.12-4.83 26.75-6.3 26.75-7.85L26.75-7.85Q26.75-11.4 27.67-14.5 28.6-17.6 30.4-19.93 32.2-22.25 34.8-23.58 37.4-24.9 40.8-24.9L40.8-24.9Q41.65-24.9 43.2-24.73 44.75-24.55 46.75-23.7L46.75-23.7 49.9-23.5 47.65-11.85Q47.15-9.2 47.15-7.2L47.15-7.2Q47.15-4.75 47.77-3.43 48.4-2.1 48.95-1.3L48.95-1.3 44.45 0.5Q43.7-0.35 43.22-1.6 42.75-2.85 42.75-4.45L42.75-4.45Q42.75-5.1 42.85-6.13 42.95-7.15 43.1-8.45L43.1-8.45 42.25-6.45Q41.4-4.5 40.4-3.18 39.4-1.85 38.27-1.05 37.15-0.25 35.92 0.08 34.7 0.4 33.4 0.4L33.4 0.4ZM89.75-18.8Q89.75-16.85 89.25-14.95 88.75-13.05 88.12-11.3 87.5-9.55 87-7.93 86.5-6.3 86.5-4.8L86.5-4.8Q86.5-3.8 86.59-2.48 86.7-1.15 86.95 0L86.95 0 81.34 0Q81.2-0.85 81.17-1.58 81.15-2.3 81.15-3L81.15-3Q81.15-4.95 81.59-6.85 82.05-8.75 82.59-10.6 83.15-12.45 83.59-14.2 84.05-15.95 84.05-17.55L84.05-17.55Q84.05-18.75 83.52-19.58 83-20.4 81.65-20.4L81.65-20.4Q80.55-20.4 79.4-19.38 78.25-18.35 77.25-16.73 76.25-15.1 75.45-13.1 74.65-11.1 74.3-9.1L74.3-9.1 72.55 0 66.95 0 69.45-12.6Q69.75-14.05 69.9-15.43 70.05-16.8 70.05-17.55L70.05-17.55Q70.05-18.75 69.52-19.58 69-20.4 67.65-20.4L67.65-20.4Q66.55-20.4 65.4-19.38 64.25-18.35 63.22-16.73 62.2-15.1 61.4-13.08 60.6-11.05 60.25-9.05L60.25-9.05 58.5 0 52.9 0 55.45-12.6Q55.75-14.05 55.87-15.3 56-16.55 56-17.55L56-17.55Q56-20.3 55.5-21.55 55-22.8 54.75-23.2L54.75-23.2 59.3-25Q59.85-24.3 60.22-23.3 60.6-22.3 60.6-20.75L60.6-20.75Q60.6-19.7 60.42-18.5 60.25-17.3 60.15-16.15L60.15-16.15 60.9-18.05Q62.25-21.5 64.47-23.2 66.7-24.9 69.4-24.9L69.4-24.9Q72.34-24.9 73.87-23.35 75.4-21.8 75.5-19.2L75.5-19.2Q78.3-24.9 83.45-24.9L83.45-24.9Q86.59-24.9 88.17-23.25 89.75-21.6 89.75-18.8L89.75-18.8ZM91.49 11.1L96.09-12.6Q96.39-14.05 96.52-15.3 96.64-16.55 96.64-17.55L96.64-17.55Q96.64-20.3 96.14-21.55 95.64-22.8 95.39-23.2L95.39-23.2 99.94-25Q100.49-24.3 100.87-23.3 101.24-22.3 101.24-20.75L101.24-20.75Q101.24-20.35 101.19-19.8 101.14-19.25 101.09-18.65 101.04-18.05 100.97-17.48 100.89-16.9 100.84-16.55L100.84-16.55 101.49-18Q102.34-20 103.34-21.33 104.34-22.65 105.47-23.45 106.59-24.25 107.82-24.58 109.04-24.9 110.34-24.9L110.34-24.9Q112.14-24.9 113.39-24.2 114.64-23.5 115.44-22.33 116.24-21.15 116.62-19.68 116.99-18.2 116.99-16.65L116.99-16.65Q116.99-13.1 116.07-10 115.14-6.9 113.34-4.58 111.54-2.25 108.92-0.93 106.29 0.4 102.94 0.4L102.94 0.4Q101.94 0.4 100.97 0.28 99.99 0.15 99.14-0.05L99.14-0.05 97.14 10.1 91.49 11.1ZM99.89-3.95Q100.64-3.7 101.42-3.58 102.19-3.45 102.84-3.45L102.84-3.45Q105.09-3.45 106.64-4.73 108.19-6 109.17-7.98 110.14-9.95 110.59-12.33 111.04-14.7 111.04-16.85L111.04-16.85Q111.04-19.05 110.42-19.93 109.79-20.8 108.49-20.8L108.49-20.8Q107.19-20.8 106.04-19.65 104.89-18.5 103.84-16.4 102.79-14.3 101.87-11.4 100.94-8.5 100.14-5.05L100.14-5.05 99.89-3.95ZM153.69-16.65Q153.69-13.1 152.76-10 151.84-6.9 150.04-4.58 148.24-2.25 145.61-0.93 142.99 0.4 139.64 0.4L139.64 0.4Q137.84 0.4 136.19 0 134.54-0.4 133.31-0.85 132.09-1.3 131.39-1.68 130.69-2.05 130.74-2.05L130.74-2.05 137.24-35.25 142.89-36.25 141.34-27.9Q141.04-26.3 140.39-24.05 139.74-21.8 139.09-19.8L139.09-19.8Q140.69-22.7 142.71-23.8 144.74-24.9 147.04-24.9L147.04-24.9Q148.84-24.9 150.09-24.2 151.34-23.5 152.14-22.33 152.94-21.15 153.31-19.68 153.69-18.2 153.69-16.65L153.69-16.65ZM145.19-20.8Q143.99-20.8 142.81-19.6 141.64-18.4 140.56-16.43 139.49-14.45 138.61-11.93 137.74-9.4 137.24-6.7L137.24-6.7 136.69-3.9Q137.44-3.65 138.21-3.55 138.99-3.45 139.54-3.45L139.54-3.45Q141.79-3.45 143.34-4.73 144.89-6 145.86-7.98 146.84-9.95 147.29-12.33 147.74-14.7 147.74-16.85L147.74-16.85Q147.74-19.05 147.11-19.93 146.49-20.8 145.19-20.8L145.19-20.8ZM160.24-20.15Q160.24-21.15 160.16-22.13 160.09-23.1 159.94-23.65L159.94-23.65 164.69-24.85Q165.24-23.75 165.44-22.38 165.63-21 165.63-19.8L165.63-19.8Q165.63-18.05 165.16-16.45 164.69-14.85 164.13-13.28 163.59-11.7 163.11-10.15 162.63-8.6 162.63-6.95L162.63-6.95Q162.63-5.75 163.21-4.93 163.78-4.1 165.34-4.1L165.34-4.1Q166.69-4.1 167.99-5.28 169.28-6.45 170.41-8.28 171.53-10.1 172.36-12.3 173.19-14.5 173.59-16.55L173.59-16.55 175.13-24.5 180.74-24.5 178.09-11.9Q177.78-10.45 177.66-9.35 177.53-8.25 177.53-7.25L177.53-7.25Q177.53-4.8 178.19-3.45 178.84-2.1 179.38-1.3L179.38-1.3 174.84 0.5Q174.09-0.35 173.61-1.6 173.13-2.85 173.13-4.45L173.13-4.45Q173.13-5.15 173.24-6.15 173.34-7.15 173.49-8.45L173.49-8.45 172.63-6.45Q171.13-3 168.71-1.3 166.28 0.4 163.28 0.4L163.28 0.4Q159.99 0.4 158.46-1.25 156.94-2.9 156.94-5.7L156.94-5.7Q156.94-7.65 157.46-9.5 157.99-11.35 158.59-13.13 159.19-14.9 159.71-16.65 160.24-18.4 160.24-20.15L160.24-20.15ZM200.48-5.05L201.73-0.85Q200.53-0.1 199.21 0.3 197.88 0.7 196.03 0.7L196.03 0.7Q192.98 0.7 190.21 0.35 187.43 0 184.33 0L184.33 0 181.48 0 181.48-3.5 195.43-20.5Q192.58-20.35 189.38-20.35L189.38-20.35 185.83-20.35 185.83-24.5 201.93-24.5 201.93-21.1 188.28-4.05Q188.73-4.1 189.16-4.13 189.58-4.15 189.88-4.15L189.88-4.15Q191.48-4.15 193.03-3.95 194.58-3.75 195.98-3.75L195.98-3.75Q197.33-3.75 198.33-4.05 199.33-4.35 200.48-5.05L200.48-5.05ZM221.93-5.05L223.18-0.85Q221.98-0.1 220.66 0.3 219.33 0.7 217.48 0.7L217.48 0.7Q214.43 0.7 211.66 0.35 208.88 0 205.78 0L205.78 0 202.93 0 202.93-3.5 216.88-20.5Q214.03-20.35 210.83-20.35L210.83-20.35 207.28-20.35 207.28-24.5 223.38-24.5 223.38-21.1 209.73-4.05Q210.18-4.1 210.61-4.13 211.03-4.15 211.33-4.15L211.33-4.15Q212.93-4.15 214.48-3.95 216.03-3.75 217.43-3.75L217.43-3.75Q218.78-3.75 219.78-4.05 220.78-4.35 221.93-5.05L221.93-5.05Z" opacity="1" transform="matrix(1,0,0,1,0,0)" fill="#ffffff" class="wordmark-text-0" data-fill-palette-color="primary" id="text-0"></path></svg></g></svg></g></svg></g></svg></g></svg></g><defs></defs></svg><rect width="395.52" height="84.3028224172856" fill="none" stroke="none" visibility="hidden"></rect></g></svg></g></svg>